mtllib material.mtl
o Default
v -5.126521587371826 -1.9268925189971924 -11.949745178222656
v -0.00001119719490816351 3.1996333599090576 -11.949745178222656
v -0.00001119719490816351 3.1996333599090576 11.949745178222656
v -5.126521587371826 -1.9268925189971924 11.949745178222656
v -0.00001119719490816351 3.1996333599090576 -11.949745178222656
v -0.00001119719490816351 3.1996333599090576 11.949745178222656
v 5.126514911651611 -1.9268925189971924 -11.949745178222656
v 5.126514911651611 -1.9268925189971924 11.949745178222656
v 4.949745178222656 -2.1036548614501953 -11.949745178222656
v 5.126514911651611 -1.9268925189971924 -11.949745178222656
v 4.949745178222656 -2.1036548614501953 11.949745178222656
v 5.126514911651611 -1.9268925189971924 11.949745178222656
v 4.949745178222656 -2.1036548614501953 -11.949745178222656
v 0.00009558434976497665 2.8462095260620117 11.949745178222656
v 0.00009558434976497665 2.8462095260620117 -11.949745178222656
v 4.949745178222656 -2.1036548614501953 11.949745178222656
v 0.00009558434976497665 2.8462095260620117 -11.949745178222656
v 0.00009558434976497665 2.8462095260620117 11.949745178222656
v -4.949748992919922 -2.1036503314971924 -11.949745178222656
v -4.949748992919922 -2.1036503314971924 11.949745178222656
v -4.949748992919922 -2.1036503314971924 11.949745178222656
v -5.126521587371826 -1.9268925189971924 -11.949745178222656
v -4.949748992919922 -2.1036503314971924 -11.949745178222656
v -5.126521587371826 -1.9268925189971924 11.949745178222656
v 0.00009558434976497665 2.8462095260620117 11.949745178222656
v -5.126521587371826 -1.9268925189971924 11.949745178222656
v -4.949748992919922 -2.1036503314971924 11.949745178222656
v -0.00001119719490816351 3.1996333599090576 11.949745178222656
v 4.949745178222656 -2.1036548614501953 11.949745178222656
v 5.126514911651611 -1.9268925189971924 11.949745178222656
v 0.00009558434976497665 2.8462095260620117 11.949745178222656
v -0.00001119719490816351 3.1996333599090576 11.949745178222656
v -4.949748992919922 -2.1036503314971924 -11.949745178222656
v -0.00001119719490816351 3.1996333599090576 -11.949745178222656
v 0.00009558434976497665 2.8462095260620117 -11.949745178222656
v -5.126521587371826 -1.9268925189971924 -11.949745178222656
v 0.00009558434976497665 2.8462095260620117 -11.949745178222656
v -0.00001119719490816351 3.1996333599090576 -11.949745178222656
v 4.949745178222656 -2.1036548614501953 -11.949745178222656
v 5.126533508300781 -1.9268664121627808 -11.949745178222656
vt -18.917247772216797 -6.089189052581787
vt 4.98222541809082 0.910869836807251
vt -18.917264938354492 0.9108103513717651
vt -18.917247772216797 -6.089189052581787
vt 4.982242584228516 -6.08912992477417
vt 4.98222541809082 0.910869836807251
vt -23.32807731628418 2.5402021408081055
vt 0.5714131593704224 2.5402071475982666
vt -23.328079223632812 9.540199279785156
vt 0.5714131593704224 2.5402071475982666
vt 0.5714117288589478 9.540204048156738
vt -23.328079223632812 9.540199279785156
vt -22.91761589050293 -0.06877719610929489
vt -22.91761589050293 0.1812227964401245
vt 0.981874942779541 -0.06875000894069672
vt -22.91761589050293 0.1812227964401245
vt 0.9818746447563171 0.18124999105930328
vt 0.981874942779541 -0.06875000894069672
vt 1.0400381088256836 -5.859353542327881
vt 24.93950080871582 1.140740990638733
vt 1.0400094985961914 1.1406431198120117
vt 1.0400381088256836 -5.859353542327881
vt 24.939529418945312 -5.859255790710449
vt 24.93950080871582 1.140740990638733
vt -22.859479904174805 1.1405448913574219
vt 1.0400094985961914 1.1406431198120117
vt -22.859451293945312 -5.8594512939453125
vt 1.0400094985961914 1.1406431198120117
vt 1.0400381088256836 -5.859354019165039
vt -22.859451293945312 -5.8594512939453125
vt 0.9818636775016785 9.830744743347168
vt -22.917627334594727 10.080718040466309
vt -22.917627334594727 9.830718040466309
vt 0.9818636775016785 9.830744743347168
vt 0.9818633794784546 10.080744743347168
vt -22.917627334594727 10.080718040466309
vt 0.032530784606933594 0.9107424020767212
vt 7.032527923583984 0.660761296749115
vt 7.032527446746826 0.9107562303543091
vt 0.032530784606933594 0.9107424020767212
vt -0.2174689769744873 0.6607416272163391
vt 7.032527923583984 0.660761296749115
vt 8.342293739318848 1.7807682752609253
vt 8.342300415039062 1.5307681560516357
vt 1.3422973155975342 1.780747652053833
vt 8.342300415039062 1.5307681560516357
vt 1.0922977924346924 1.530746579170227
vt 1.3422973155975342 1.780747652053833
vt -20.96748924255371 -4.038931369781494
vt -13.717491149902344 -4.288909435272217
vt -13.96749210357666 -4.038909912109375
vt -20.96748924255371 -4.038931369781494
vt -20.96748924255371 -4.288925647735596
vt -13.717491149902344 -4.288909435272217
vt -12.910316467285156 5.065859794616699
vt -12.660314559936523 4.815860748291016
vt -19.91031265258789 5.065832138061523
vt -12.660314559936523 4.815860748291016
vt -19.910316467285156 4.815832138061523
vt -19.91031265258789 5.065832138061523
vn -0.7071078493752267 0.7071057129962547 0
vn -0.7071078493752267 0.7071057129962547 0
vn -0.7071078493752267 0.7071057129962547 0
vn -0.7071078493752267 0.7071057129962547 0
vn -0.7071078493752267 0.7071057129962547 0
vn -0.7071078493752267 0.7071057129962547 0
vn 0.7071067653286034 0.7071067970444913 0
vn 0.7071067653286034 0.7071067970444913 0
vn 0.7071067653286034 0.7071067970444913 0
vn 0.7071067653286034 0.7071067970444913 0
vn 0.7071067653286034 0.7071067970444913 0
vn 0.7071067653286034 0.7071067970444913 0
vn 0.7070919981889059 -0.7071215638751377 0
vn 0.7070919981889059 -0.7071215638751377 0
vn 0.7070919981889059 -0.7071215638751377 0
vn 0.7070919981889059 -0.7071215638751377 0
vn 0.7070919981889059 -0.7071215638751377 0
vn 0.7070919981889059 -0.7071215638751377 0
vn -0.7071221233933916 -0.707091438646814 0
vn -0.7071221233933916 -0.707091438646814 0
vn -0.7071221233933916 -0.707091438646814 0
vn -0.7071221233933916 -0.707091438646814 0
vn -0.7071221233933916 -0.707091438646814 0
vn -0.7071221233933916 -0.707091438646814 0
vn 0.707107872611859 -0.7071056897595512 0
vn 0.707107872611859 -0.7071056897595512 0
vn 0.707107872611859 -0.7071056897595512 0
vn 0.707107872611859 -0.7071056897595512 0
vn 0.707107872611859 -0.7071056897595512 0
vn 0.707107872611859 -0.7071056897595512 0
vn -0.7070772147426538 -0.7071363463942234 0
vn -0.7070772147426538 -0.7071363463942234 0
vn -0.7070772147426538 -0.7071363463942234 0
vn -0.7070772147426538 -0.7071363463942234 0
vn -0.7070772147426538 -0.7071363463942234 0
vn -0.7070772147426538 -0.7071363463942234 0
vn 0 0 1
vn 0 0 1
vn 0 0 1
vn 0 0 1
vn 0 0 1
vn 0 0 1
vn 0 0 1
vn 0 0 1
vn 0 0 1
vn 0 0 1
vn 0 0 1
vn 0 0 1
vn 0 0 -1
vn 0 0 -1
vn 0 0 -1
vn 0 0 -0.9999999999999999
vn 0 0 -0.9999999999999999
vn 0 0 -0.9999999999999999
vn 0 0 -0.9999999999999999
vn 0 0 -0.9999999999999999
vn 0 0 -0.9999999999999999
vn 0 0 -1
vn 0 0 -1
vn 0 0 -1
g 45 deg open gable -roof
usemtl 2
f 1/1/1 4/5/5 3/2/2 2/3/3
f 5/7/7 6/8/8 8/11/11 7/9/9
usemtl 6
f 9/13/13 10/14/14 12/17/17 11/15/15
usemtl 4
f 13/19/19 16/23/23 14/20/20 15/21/21
f 17/25/25 18/26/26 20/29/29 19/27/27
usemtl 6
f 21/31/31 24/35/35 22/32/32 23/33/33
f 25/37/37 28/41/41 26/38/38 27/39/39
f 29/43/43 30/44/44 32/47/47 31/45/45
f 33/49/49 36/53/53 34/50/50 35/51/51
f 37/55/55 38/56/56 40/59/59 39/57/57
