mtllib material.mtl
o Default
v 0.3125 4.531254768371582 -1.646446704864502
v 0.3125 4.884808540344238 -2
v -10.3125 4.884808540344238 -2
v -10.3125 4.531254768371582 -1.646446704864502
v 0.3125 4.531254768371582 -2.353553295135498
v -10.3125 4.884808540344238 -2
v 0.3125 4.884808540344238 -2
v -10.3125 4.531254768371582 -2.353553295135498
v -10 2.000005006790161 -2
v -10 2.500005006790161 0
v -10 2.500005006790161 -2
v -10 0 0
v -10 7.152557373046875e-7 -4
v -10 2.500005006790161 -2
v -10 2.500005006790161 -4
v -10 2.000005006790161 -2
v -10 0 0
v 0 2.500005006790161 0
v -10 2.500005006790161 0
v 0 0 0
v 0 7.152557373046875e-7 -4
v -10 2.500005006790161 -4
v 0 2.500005006790161 -4
v -10 7.152557373046875e-7 -4
v 0.25 2.500005006790161 -4.353553295135498
v -10.25 4.853558540344238 -2
v 0.25 4.853558540344238 -2
v -10.25 2.500005006790161 -4.353553295135498
v 0.25 4.853558540344238 -2
v -10.25 4.853558540344238 -2
v 0.25 2.500005006790161 0.35355377197265625
v -10.25 2.500005006790161 0.35355377197265625
v 0.25 2.323228359222412 0.17677688598632812
v -10.25 4.500004768371582 -2
v 0.25 4.500004768371582 -2
v -10.25 2.323228359222412 0.17677688598632812
v 0.25 4.500004768371582 -2
v -10.25 4.500004768371582 -2
v 0.25 2.323228359222412 -4.176776885986328
v -10.25 2.323228359222412 -4.176776885986328
v -10.25 4.500004768371582 -2
v -10.25 2.500005006790161 -4.353553295135498
v -10.25 2.323228359222412 -4.176776885986328
v -10.25 4.853558540344238 -2
v -10.25 2.323228359222412 0.17677688598632812
v -10.25 2.500005006790161 0.35355377197265625
v -10.25 4.500004768371582 -2
v -10.25 4.853558540344238 -2
v -10.25 2.323228359222412 -4.176776885986328
v 0.25 2.500005006790161 -4.353553295135498
v 0.25 2.323228359222412 -4.176776885986328
v -10.25 2.500005006790161 -4.353553295135498
v 0.25 2.323228359222412 0.17677688598632812
v 0.25 2.500005006790161 0.35355377197265625
v -10.25 2.323228359222412 0.17677688598632812
v -10.25 2.500005006790161 0.35355377197265625
v 0.25 4.500004768371582 -2
v 0.25 4.853558540344238 -2
v 0.25 2.323228359222412 0.17677688598632812
v 0.25 2.500005006790161 0.35355377197265625
v 0 4.500004768371582 -2
v 0 2.500005006790161 0
v 0 2.500005006790161 -2
v 0 4.500004768371582 -2
v 0 0 0
v 0 2.500005006790161 -2
v 0 2.500005006790161 0
v 3.3306690738754696e-16 2.000005006790161 -2
v 3.3306690738754696e-16 2.000005006790161 -2
v 0 2.500005006790161 -4
v 0 2.500005006790161 -2
v 0 7.152557373046875e-7 -4
v 0 2.500005006790161 -2
v 0 2.500005006790161 -4
v 0 4.500004768371582 -2
v 0 4.500004768371582 -2
v -10 2.500005006790161 -2
v -10 2.500005006790161 0
v -10 4.500004768371582 -2
v -10 4.500004768371582 -2
v -10 4.500004768371582 -2
v -10 2.500005006790161 -4
v -10 2.500005006790161 -2
v -10 4.500004768371582 -2
v 0.25 2.323228359222412 -4.176776885986328
v 0.25 4.853558540344238 -2
v 0.25 4.500004768371582 -2
v 0.25 2.500005006790161 -4.353553295135498
v 0.3125 4.531254768371582 -1.646446704864502
v -10.3125 4.884808540344238 -2
v 0.3125 4.884808540344238 -2
v -10.3125 4.531254768371582 -1.646446704864502
v 0.3125 4.884808540344238 -2
v -10.3125 4.884808540344238 -2
v 0.3125 4.531254768371582 -2.353553295135498
v -10.3125 4.531254768371582 -2.353553295135498
vt 10.49999713897705 0.5
vt -0.000002862441988327191 0.499948114156723
vt 10.5 8.104628079763643e-15
vt -0.000002862441988327191 0.499948114156723
vt -9.550933555146912e-7 -0.00005188584327697754
vt 10.5 8.104628079763643e-15
vt 0 0.5
vt 10.50000286102295 0.9999481439590454
vt 0.000002471527068337309 1
vt 0 0.5
vt 10.5 0.499948114156723
vt 10.50000286102295 0.9999481439590454
vt 0 0
vt 1.0000001192092896 0.2499994933605194
vt 1.2622160738828825e-7 0.25
vt 0 0
vt 0.9999995231628418 -1.0000029802322388
vt 1.0000001192092896 0.2499994933605194
vt 0 0
vt 0.9999974966049194 1.2500040531158447
vt -0.0000024170903998310678 1.250002145767212
vt 0 0
vt 0.9999980330467224 1.0000040531158447
vt 0.9999974966049194 1.2500040531158447
vt 0 0
vt 5.000001430511475 1.2499977350234985
vt 0.000001206119804919581 1.2500025033950806
vt 0 0
vt 5 -0.000004824469669983955
vt 5.000001430511475 1.2499977350234985
vt 0 0
vt 5.000000953674316 1.249997615814209
vt 0.0000011664347994155833 1.250002145767212
vt 0 0
vt 5 -0.000004420404366101138
vt 5.000000953674316 1.249997615814209
vt -2.8284270763397217 10.500000953674316
vt 0.49999916553497314 0
vt 0.5 10.5
vt -2.8284270763397217 10.500000953674316
vt -2.828428030014038 6.058054395907675e-7
vt 0.49999916553497314 0
vt 0.5 10.5
vt 0.49999916553497314 0
vt 3.828427314758301 10.5
vt 0.49999916553497314 0
vt 3.8284268379211426 0
vt 3.828427314758301 10.5
vt 0 0
vt 10.50001049041748 3.078392267227173
vt 0.000010210019354417454 3.0784270763397217
vt 0 0
vt 10.5 -0.00003493386975605972
vt 10.50001049041748 3.078392267227173
vt -6.737131118774414 -3.6587142944335938
vt 3.762868881225586 -3.6587493419647217
vt -6.7371416091918945 -6.7371416091918945
vt 3.762868881225586 -3.6587493419647217
vt 3.7628588676452637 -6.737176418304443
vt -6.7371416091918945 -6.7371416091918945
vt 0.7500003576278687 3.250120162963867
vt 0.49999988079071045 0.17169292271137238
vt 0.7500002384185791 0.17169813811779022
vt 0.7500003576278687 3.250120162963867
vt 0.5000001192092896 3.5001204013824463
vt 0.49999988079071045 0.17169292271137238
vt 0.7500002384185791 0.17169813811779022
vt 1.0000004768371582 0.17169277369976044
vt 0.7500003576278687 3.2501208782196045
vt 1.0000004768371582 0.17169277369976044
vt 1.0000005960464478 3.5001211166381836
vt 0.7500003576278687 3.2501208782196045
vt 0.75 10.500000953674316
vt 0.4999997615814209 5.108889666871619e-8
vt 0.75 0
vt 0.75 10.500000953674316
vt 0.4999997615814209 10.500000953674316
vt 0.4999997615814209 5.108889666871619e-8
vt 0.75 0
vt 0.4999997615814209 5.108889666871619e-8
vt 0.75 10.500000953674316
vt 0.4999997615814209 5.108889666871619e-8
vt 0.4999997615814209 10.500000953674316
vt 0.75 10.500000953674316
vt 0.4999998211860657 3.2501204013824463
vt 0.7500001192092896 3.5001206398010254
vt 0.4999995827674866 0.17169848084449768
vt 0.7500001192092896 3.5001206398010254
vt 0.7499998807907104 0.17169292271137238
vt 0.4999995827674866 0.17169848084449768
vt 0 1
vt 1 -2.220446049250313e-16
vt -1.8369701465288538e-16 0
vt 0 1
vt 0 1
vt 1 -2.220446049250313e-16
vt 0 0
vt 0.9999977350234985 1.2500042915344238
vt -0.0000022492445168609265 1.2500025033950806
vt 0 0
vt 0.999998152256012 1.0000042915344238
vt 0.9999977350234985 1.2500042915344238
vt 0 0
vt 1.0000001192092896 0.2499994933605194
vt 1.300434036011211e-7 0.25
vt 0 0
vt 0.999999463558197 -1.0000026226043701
vt 1.0000001192092896 0.2499994933605194
vt 1 1.2246468525851679e-16
vt 0 0
vt 1 1
vt 0 0
vt 1 1
vt 1 1
vt 1 1.2246468525851679e-16
vt 0 0
vt 1 1
vt 0 0
vt 1 1
vt 1 1
vt 0 1
vt 1 -2.220446049250313e-16
vt -1.8369701465288538e-16 0
vt 0 1
vt 0 1
vt 1 -2.220446049250313e-16
vt 0.4999995827674866 0.17169848084449768
vt 0.24999964237213135 3.5001206398010254
vt 0.4999998211860657 3.2501204013824463
vt 0.4999995827674866 0.17169848084449768
vt 0.24999934434890747 0.17169292271137238
vt 0.24999964237213135 3.5001206398010254
vt 10.5 8.104628079763643e-15
vt -0.000002862441988327191 0.499948114156723
vt 10.49999713897705 0.5
vt 10.5 8.104628079763643e-15
vt -9.550933555146912e-7 -0.00005188584327697754
vt -0.000002862441988327191 0.499948114156723
vt 0.000002471527068337309 1
vt 10.50000286102295 0.9999481439590454
vt 0 0.5
vt 10.50000286102295 0.9999481439590454
vt 10.5 0.499948114156723
vt 0 0.5
vn 0 0.7071063043494213 0.7071072580233521
vn 0 0.7071063043494213 0.7071072580233521
vn 0 0.7071063043494213 0.7071072580233521
vn 0 0.7071063043494213 0.7071072580233521
vn 0 0.7071063043494213 0.7071072580233521
vn 0 0.7071063043494213 0.7071072580233521
vn 0 0.7071063043494213 -0.7071072580233521
vn 0 0.7071063043494213 -0.7071072580233521
vn 0 0.7071063043494213 -0.7071072580233521
vn 0 0.7071063043494213 -0.7071072580233521
vn 0 0.7071063043494213 -0.7071072580233521
vn 0 0.7071063043494213 -0.7071072580233521
vn -1 0 0
vn -1 0 0
vn -1 0 0
vn -1 0 0
vn -1 0 0
vn -1 0 0
vn -1 0 0
vn -1 0 0
vn -1 0 0
vn -1 0 0
vn -1 0 0
vn -1 0 0
vn 0 0 1
vn 0 0 1
vn 0 0 1
vn 0 0 1
vn 0 0 1
vn 0 0 1
vn 0 0 -1
vn 0 0 -1
vn 0 0 -1
vn 0 0 -1
vn 0 0 -1
vn 0 0 -1
vn 0 0.7071067453710447 -0.7071068170020486
vn 0 0.7071067453710447 -0.7071068170020486
vn 0 0.7071067453710447 -0.7071068170020486
vn 0 0.7071067453710447 -0.7071068170020486
vn 0 0.7071067453710447 -0.7071068170020486
vn 0 0.7071067453710447 -0.7071068170020486
vn 0 0.7071068170020449 0.7071067453710481
vn 0 0.7071068170020449 0.7071067453710481
vn 0 0.7071068170020449 0.7071067453710481
vn 0 0.7071068170020449 0.7071067453710481
vn 0 0.7071068170020449 0.7071067453710481
vn 0 0.7071068170020449 0.7071067453710481
vn 0 -0.7071068586347253 -0.7071067037383613
vn 0 -0.7071068586347253 -0.7071067037383613
vn 0 -0.7071068586347253 -0.7071067037383613
vn 0 -0.7071068586347253 -0.7071067037383613
vn 0 -0.7071068586347253 -0.7071067037383613
vn 0 -0.7071068586347253 -0.7071067037383613
vn 0 -0.7071068586347253 0.7071067037383613
vn 0 -0.7071068586347253 0.7071067037383613
vn 0 -0.7071068586347253 0.7071067037383613
vn 0 -0.7071068586347253 0.7071067037383613
vn 0 -0.7071068586347253 0.7071067037383613
vn 0 -0.7071068586347253 0.7071067037383613
vn -1 0 0
vn -1 0 0
vn -1 0 0
vn -1 0 0
vn -1 0 0
vn -1 0 0
vn -0.9999999999999999 0 0
vn -0.9999999999999999 0 0
vn -0.9999999999999999 0 0
vn -1 0 0
vn -1 0 0
vn -1 0 0
vn 0 -0.7071063043487783 -0.7071072580239953
vn 0 -0.7071063043487783 -0.7071072580239953
vn 0 -0.7071063043487783 -0.7071072580239953
vn 0 -0.7071063043487783 -0.7071072580239953
vn 0 -0.7071063043487783 -0.7071072580239953
vn 0 -0.7071063043487783 -0.7071072580239953
vn 0 -0.7071072580233522 0.7071063043494213
vn 0 -0.7071072580233522 0.7071063043494213
vn 0 -0.7071072580233522 0.7071063043494213
vn 0 -0.7071072580233522 0.7071063043494213
vn 0 -0.7071072580233522 0.7071063043494213
vn 0 -0.7071072580233522 0.7071063043494213
vn 1 0 0
vn 1 0 0
vn 1 0 0
vn 1 0 0
vn 1 0 0
vn 1 0 0
vn 1 0 0
vn 1 0 0
vn 1 0 0
vn 0 0 0
vn 0 0 0
vn 0 0 0
vn 1 0 0
vn 1 0 0
vn 1 0 0
vn 1 6.661338147750939e-16 8.326689360649823e-16
vn 1 6.661338147750939e-16 8.326689360649823e-16
vn 1 6.661338147750939e-16 8.326689360649823e-16
vn 1 6.661338147750939e-16 0
vn 1 6.661338147750939e-16 0
vn 1 6.661338147750939e-16 0
vn 1 0 -1.6653345369377348e-16
vn 1 0 -1.6653345369377348e-16
vn 1 0 -1.6653345369377348e-16
vn 1 0 0
vn 1 0 0
vn 1 0 0
vn 0 0 0
vn 0 0 0
vn 0 0 0
vn -1 0 0
vn -1 0 0
vn -1 0 0
vn 0 0 0
vn 0 0 0
vn 0 0 0
vn -1 0 0
vn -1 0 0
vn -1 0 0
vn 0 0 0
vn 0 0 0
vn 0 0 0
vn 1 0 0
vn 1 0 0
vn 1 0 0
vn 1 0 0
vn 1 0 0
vn 1 0 0
vn 0 -0.7071063043494213 -0.7071072580233521
vn 0 -0.7071063043494213 -0.7071072580233521
vn 0 -0.7071063043494213 -0.7071072580233521
vn 0 -0.7071063043494213 -0.7071072580233521
vn 0 -0.7071063043494213 -0.7071072580233521
vn 0 -0.7071063043494213 -0.7071072580233521
vn 0 -0.7071063043494213 0.7071072580233521
vn 0 -0.7071063043494213 0.7071072580233521
vn 0 -0.7071063043494213 0.7071072580233521
vn 0 -0.7071063043494213 0.7071072580233521
vn 0 -0.7071063043494213 0.7071072580233521
vn 0 -0.7071063043494213 0.7071072580233521
g 45 deg open gable -monitor -dormer -ridged
usemtl 5
f 2/1/1 3/2/2 4/5/5 1/3/3
f 5/7/7 8/11/11 6/8/8 7/9/9
usemtl 0
f 9/13/13 12/17/17 10/14/14 11/15/15
f 13/19/19 16/23/23 14/20/20 15/21/21
f 17/25/25 20/29/29 18/26/26 19/27/27
f 21/31/31 24/35/35 22/32/32 23/33/33
usemtl 2
f 25/37/37 28/41/41 26/38/38 27/39/39
f 29/43/43 30/44/44 32/47/47 31/45/45
usemtl 4
f 33/49/49 36/53/53 34/50/50 35/51/51
f 37/55/55 38/56/56 40/59/59 39/57/57
usemtl 6
f 41/61/61 44/65/65 42/62/62 43/63/63
f 45/67/67 46/68/68 48/71/71 47/69/69
f 49/73/73 52/77/77 50/74/74 51/75/75
f 53/79/79 54/80/80 56/83/83 55/81/81
f 57/85/85 58/86/86 60/89/89 59/87/87
usemtl 0
f 61/91/91 64/95/95 62/92/92 63/93/93
f 65/97/97 68/101/101 66/98/98 67/99/99
f 69/103/103 72/107/107 70/104/104 71/105/105
f 73/109/109 74/110/110 76/113/113 75/111/111
f 77/115/115 78/116/116 80/119/119 79/117/117
f 81/121/121 84/125/125 82/122/122 83/123/123
usemtl 6
f 85/127/127 88/131/131 86/128/128 87/129/129
usemtl 5
f 89/133/133 92/137/137 90/134/134 91/135/135
f 93/139/139 94/140/140 96/143/143 95/141/141
