mtllib material.mtl
o Default
v 12.012245178222656 12.62744140625 -0.3535554111003876
v 12.012245178222656 12.980995178222656 -0.0000021457672119140625
v -12.012245178222656 12.980995178222656 -0.000002145767439287738
v -12.012245178222656 12.62744140625 -0.3535554111003876
v -12.012245178222656 12.627442359924316 0.35355138778686523
v 12.012245178222656 12.980995178222656 -0.0000021457672119140625
v -12.012245178222656 12.980995178222656 -0.000002145767439287738
v 12.012245178222656 12.627442359924316 0.35355138778686523
v 11.699745178222656 1.4210854715202004e-14 -4.699746131896973
v -11.699745178222656 8 -4.699746131896973
v 11.699745178222656 8 -4.699746131896973
v -11.699745178222656 1.4210854715202004e-14 -4.699746131896973
v 11.699745178222656 1.4210854715202004e-14 4.699747085571289
v 11.699745178222656 8 -4.699746131896973
v 11.699745178222656 8 4.699747085571289
v 11.699745178222656 1.4210854715202004e-14 -4.699746131896973
v -11.699745178222656 1.4210854715202004e-14 4.699747085571289
v 11.699745178222656 8 4.699747085571289
v -11.699745178222656 8 4.699747085571289
v 11.699745178222656 1.4210854715202004e-14 4.699747085571289
v -11.949745178222656 8 -4.949747085571289
v -11.949745178222656 12.949745178222656 -0.0000021457672119140625
v -11.949745178222656 12.949745178222656 -0.0000021457672119140625
v -11.949745178222656 8 4.949747085571289
v 11.949745178222656 12.949745178222656 -0.0000021457672119140625
v 11.949745178222656 12.949745178222656 -0.0000021457672119140625
v 11.949745178222656 8 -4.949747085571289
v 11.949745178222656 8 4.949747085571289
v -11.949745178222656 8 4.949747085571289
v 11.949745178222656 12.949745178222656 -0.0000021457672119140625
v -11.949745178222656 12.949745178222656 -0.0000021457672119140625
v 11.949745178222656 8 4.949747085571289
v -11.949745178222656 12.949745178222656 -0.0000021457672119140625
v 11.949745178222656 12.949745178222656 -0.0000021457672119140625
v -11.949745178222656 8 -4.949747085571289
v 11.949745178222656 8 -4.949747085571289
v -11.699745178222656 1.4210854715202004e-14 -4.699746131896973
v -11.699745178222656 8 4.699747085571289
v -11.699745178222656 8 -4.699746131896973
v -11.699745178222656 1.4210854715202004e-14 4.699747085571289
v 11.949745178222656 8 -4.949747085571289
v -11.949745178222656 8 4.949747085571289
v -11.949745178222656 8 -4.949747085571289
v 11.949745178222656 8 4.949747085571289
v 12.012245178222656 12.980995178222656 -0.0000021457672119140625
v -12.012245178222656 12.980995178222656 -0.000002145767439287738
v 12.012245178222656 12.62744140625 -0.3535554111003876
v -12.012245178222656 12.62744140625 -0.3535554111003876
v -12.012245178222656 12.980995178222656 -0.000002145767439287738
v 12.012245178222656 12.980995178222656 -0.0000021457672119140625
v -12.012245178222656 12.627442359924316 0.35355138778686523
v 12.012245178222656 12.627442359924316 0.35355138778686523
vt -0.125 0.5
vt 23.899490356445312 0.9999776482582092
vt -0.12499953806400299 1
vt -0.125 0.5
vt 23.899490356445312 0.49997764825820923
vt 23.899490356445312 0.9999776482582092
vt 23.899490356445312 1.0000063180923462
vt -0.125000461935997 0.5000286102294922
vt 23.899490356445312 0.5000062584877014
vt 23.899490356445312 1.0000063180923462
vt -0.125 1.0000287294387817
vt -0.125000461935997 0.5000286102294922
vt -11.649746894836426 0.24999718368053436
vt 0.04999745264649391 4.249999523162842
vt -11.649747848510742 4.249997138977051
vt -11.649746894836426 0.24999718368053436
vt 0.04999828338623047 0.24999961256980896
vt 0.04999745264649391 4.249999523162842
vt 0 0
vt 4.6997456550598145 4.000000953674316
vt -9.410032362211496e-7 4
vt 0 0
vt 4.699746608734131 0.0000010371559255872853
vt 4.6997456550598145 4.000000953674316
vt 0 0
vt 11.699751853942871 3.999981641769409
vt 0.000006167630999698304 3.999999761581421
vt 0 0
vt 11.699745178222656 -0.000018233509763376787
vt 11.699751853942871 3.999981641769409
vt -20.96745491027832 5.8605637550354
vt -13.967469215393066 0.910793662071228
vt -13.967469215393066 0.910793662071228
vt -20.96745491027832 5.8605637550354
vt -20.96748924255371 -4.038931369781494
vt -13.967469215393066 0.910793662071228
vt 0.032530784606933594 0.9107424020767212
vt 0.032530784606933594 0.9107424020767212
vt 7.0325422286987305 5.8604607582092285
vt 0.032530784606933594 0.9107424020767212
vt 7.032505989074707 -4.03903341293335
vt 7.0325422286987305 5.8604607582092285
vt -18.917247772216797 -6.089189052581787
vt 4.98222541809082 0.910869836807251
vt -18.917264938354492 0.9108103513717651
vt -18.917247772216797 -6.089189052581787
vt 4.982242584228516 -6.08912992477417
vt 4.98222541809082 0.910869836807251
vt -23.32807731628418 2.5402021408081055
vt 0.5714131593704224 2.5402071475982666
vt -23.328079223632812 9.540199279785156
vt 0.5714131593704224 2.5402071475982666
vt 0.5714117288589478 9.540204048156738
vt -23.328079223632812 9.540199279785156
vt 0.04999999329447746 0.25
vt 4.7497453689575195 4.250001430511475
vt 0.04999864101409912 4.25
vt 0.04999999329447746 0.25
vt 4.749746799468994 0.25000157952308655
vt 4.7497453689575195 4.250001430511475
vt 0.981874942779541 -0.06875000894069672
vt -22.917627334594727 9.830718040466309
vt -22.91761589050293 -0.06877719610929489
vt 0.981874942779541 -0.06875000894069672
vt 0.9818636775016785 9.830744743347168
vt -22.917627334594727 9.830718040466309
vt -0.12499953806400299 1
vt 23.899490356445312 0.9999776482582092
vt -0.125 0.5
vt 23.899490356445312 0.9999776482582092
vt 23.899490356445312 0.49997764825820923
vt -0.125 0.5
vt 23.899490356445312 0.5000062584877014
vt -0.125000461935997 0.5000286102294922
vt 23.899490356445312 1.0000063180923462
vt -0.125000461935997 0.5000286102294922
vt -0.125 1.0000287294387817
vt 23.899490356445312 1.0000063180923462
vn 6.692236987349155e-15 0.707106274547069 -0.7071072878256631
vn 6.692236987349155e-15 0.707106274547069 -0.7071072878256631
vn 6.692236987349155e-15 0.707106274547069 -0.7071072878256631
vn 0 0.7071062745468415 -0.7071072878258904
vn 0 0.7071062745468415 -0.7071072878258904
vn 0 0.7071062745468415 -0.7071072878258904
vn -6.69222542302657e-15 0.7071074964425846 0.7071060659297868
vn -6.69222542302657e-15 0.7071074964425846 0.7071060659297868
vn -6.69222542302657e-15 0.7071074964425846 0.7071060659297868
vn 0 0.7071074964423574 0.7071060659300141
vn 0 0.7071074964423574 0.7071060659300141
vn 0 0.7071074964423574 0.7071060659300141
vn 0 0 -1
vn 0 0 -1
vn 0 0 -1
vn 0 0 -1
vn 0 0 -1
vn 0 0 -1
vn 1 0 0
vn 1 0 0
vn 1 0 0
vn 1 0 0
vn 1 0 0
vn 1 0 0
vn 0 0 1
vn 0 0 1
vn 0 0 1
vn 0 0 1
vn 0 0 1
vn 0 0 1
vn 0 0 0
vn 0 0 0
vn 0 0 0
vn -1 0 0
vn -1 0 0
vn -1 0 0
vn 0 0 0
vn 0 0 0
vn 0 0 0
vn 1 0 0
vn 1 0 0
vn 1 0 0
vn 0 0.7071070706947784 0.7071064916781983
vn 0 0.7071070706947784 0.7071064916781983
vn 0 0.7071070706947784 0.7071064916781983
vn 0 0.7071070706947784 0.7071064916781983
vn 0 0.7071070706947784 0.7071064916781983
vn 0 0.7071070706947784 0.7071064916781983
vn 0 0.7071067641566405 -0.7071067982164542
vn 0 0.7071067641566405 -0.7071067982164542
vn 0 0.7071067641566405 -0.7071067982164542
vn 0 0.7071067641566405 -0.7071067982164542
vn 0 0.7071067641566405 -0.7071067982164542
vn 0 0.7071067641566405 -0.7071067982164542
vn -1 0 0
vn -1 0 0
vn -1 0 0
vn -1 0 0
vn -1 0 0
vn -1 0 0
vn 0 -1 0
vn 0 -1 0
vn 0 -1 0
vn 0 -1 0
vn 0 -1 0
vn 0 -1 0
vn -6.692236987349155e-15 -0.707106274547069 0.7071072878256631
vn -6.692236987349155e-15 -0.707106274547069 0.7071072878256631
vn -6.692236987349155e-15 -0.707106274547069 0.7071072878256631
vn 0 -0.7071062745468415 0.7071072878258904
vn 0 -0.7071062745468415 0.7071072878258904
vn 0 -0.7071062745468415 0.7071072878258904
vn 6.69222542302657e-15 -0.7071074964425846 -0.7071060659297868
vn 6.69222542302657e-15 -0.7071074964425846 -0.7071060659297868
vn 6.69222542302657e-15 -0.7071074964425846 -0.7071060659297868
vn 0 -0.7071074964423574 -0.7071060659300141
vn 0 -0.7071074964423574 -0.7071060659300141
vn 0 -0.7071074964423574 -0.7071060659300141
g 45 deg box gable -house -ridged
usemtl 5
f 1/1/1 4/5/5 3/2/2 2/3/3
f 5/7/7 8/11/11 6/8/8 7/9/9
usemtl 0
f 9/13/13 12/17/17 10/14/14 11/15/15
f 13/19/19 16/23/23 14/20/20 15/21/21
f 17/25/25 20/29/29 18/26/26 19/27/27
usemtl 2
f 21/31/31 24/35/35 22/32/32 23/33/33
f 25/37/37 26/38/38 28/41/41 27/39/39
f 29/43/43 32/47/47 30/44/44 31/45/45
f 33/49/49 34/50/50 36/53/53 35/51/51
usemtl 0
f 37/55/55 40/59/59 38/56/56 39/57/57
usemtl 4
f 41/61/61 44/65/65 42/62/62 43/63/63
usemtl 5
f 45/67/67 46/68/68 48/71/71 47/69/69
f 49/73/73 50/74/74 52/77/77 51/75/75
